<svg data-name="Layer 1" xmlns="http://www.w3.org/2000/svg" viewBox="0 0 2210.3 1807.4"><path d="M1498 1285c-9 7-18 12-28 18a1657 1657 0 0 0-54 29l-28 14-5 2c-2 0-5-1-6-3l-7-11c-4-9-10-16-14-24l-11-20c-6-8-10-18-16-27l-2-3c-3-7-7-13-12-18-3-3-6-6-10-7l-8-3h-12l-11 2-28 8-23 6c-6 1-12 4-18 7l-1 1c-4 4-8 8-10 14l-3 21v103c0 3-3 6-5 6l-4 1-27 2-16 2a500 500 0 0 1-78-1l-4-1-26-1h-3c-6-1-9-4-10-9v-106l-2-18-1-1c-3-5-6-10-11-13l-8-4-3-1-24-7-36-10c-6-2-12-1-18-2h-2l-2 1c-11 2-18 10-24 19l-17 30-23 39-10 18-4 6c-2 3-6 4-9 3l-4-2-32-15-18-10-28-16-27-17-3-2 7-5 26-15 19-11c5-3 5-4 2-10l-3-8-9-18-22-35-2-5 3-4 9-18 1-3c0-6 2-12 0-18l-1-4-12-16-34-33c-5-7-12-12-19-16l-5-2c-7-1-14-2-21 1l-10 4-13 8-6-4-27-16-32-17h-2c-2-1-4 0-5 1l-4 5-24 43-5 6a2315 2315 0 0 1-39-64l-10-20-9-18-6-12 1-5 4-3 8-5 25-14 21-13 32-18 6-3 13-11 1-2c4-8 7-15 6-24l-3-14c-5-15-10-30-13-46l-5-16c-3-6-7-10-13-13a48 48 0 0 0-23-6h-62a6312 6312 0 0 1-45 0l-5-4-1-8-3-30v-2c-2-16-1-32-1-48 0-11-1-22 1-33l2-34 2-9c1-2 3-4 6-4h107l18-3 4-2 5-4c4-2 6-6 8-10 3-8 6-16 7-25l1-4 1-4c1-8 4-16 7-23 3-8 4-16 5-24 1-4 0-8-1-12l-3-5-2-3c-5-5-9-11-16-13l-45-26-43-25-3-2c-3-2-4-7-3-10l10-20 10-21 14-26 8-13 19-30 14-21 6-6c2-3 5-3 8-2l7 3 43 25c13 8 27 17 41 24 7 4 15 8 24 8h1c6-1 12-2 17-6l11-10a526 526 0 0 1 46-47c3-5 5-9 5-14 1-6 1-11-2-16l-5-13-11-19-3-6-5-7-12-21-3-5-17-29-1-3c-1-3-1-6 1-8l6-4 20-14 15-10 10-6 33-19 25-13 27-13 6-2c4 1 6 3 7 6l11 19 27 47 14 23c2 6 7 10 11 14l4 3 11 4 3 1c6 0 12 0 18-2l25-8 17-4 16-4 14-6c5-7 10-13 12-21 2-11 1-22 1-32V26l1-16c0-2 1-4 3-5l6-1a1656 1656 0 0 1 71-4l23 1c7-2 14 0 21 0l38 3 4 1c3 1 5 4 6 7v59l-1 26v16l3 21 4 9 4 4 3 3 12 5 18 5 8 2 34 9 8 2c6 2 12 2 18-1 5-2 9-4 12-8a86 86 0 0 0 15-22l24-41 21-36 1-2c2-5 6-6 12-4l4 2 27 13a369 369 0 0 1 49 27c12 6 22 14 32 21l12 8 11 8c4 3 4 6 2 10l-3 6-29 51-19 33-7 17c-2 6 0 12 1 19l1 1c3 6 7 12 12 16l37 37c5 5 10 9 16 12l4 1 7 1h7c5-1 11-2 16-5l36-21 52-30 8-4 4 1 3 4 10 14 16 23 10 17 19 32 8 16 5 10 1 2 10 23c2 2 1 5-1 7l-5 3-36 21-55 31-12 11-1 2c-3 5-4 10-6 16v3l2 15 5 15 8 32 8 21 1 3c6 7 14 11 23 12l20 1h88l9 1 4 2 2 6 1 7 3 46v39c1 12-2 24-1 36-2 8-2 16-2 23l-1 5c-2 6-2 7-10 8h-103c-6-1-12 1-18 2l-5 2-7 6-4 5-7 18c-2 14-7 27-10 40l-3 9-2 9-1 12 1 6 4 9 7 7 12 8 31 18 18 10 34 20 5 3c3 1 4 3 4 6v4l-5 11-16 33-8 14-14 25-13 20-6 9-4-5-9-15-18-30c0-2-1-3-3-5l-3-1-3 1-32 16-24 14-11 7c-7-5-15-9-23-12l-13-2h-2l-6 1-5 2c-7 4-13 10-18 15a395 395 0 0 1-40 40c-5 6-7 14-8 22-1 3 0 7 1 10 2 6 4 12 8 17l5 9-5 8-12 20c-5 8-10 17-14 27l-6 13c-1 1 0 3 1 5l3 2 43 24c3 2 6 3 8 6Zm-379-975h-32l-28 3c-10 0-20 1-30 4l-34 8-16 5-36 14-20 10-35 20-5 4-36 28-12 10-22 23-13 15-26 36-8 13-6 11-18 36-14 42-4 12a1116 1116 0 0 0-10 59l-2 28v32l4 42 1 6 11 43 4 15 13 31c3 9 8 18 13 27l18 31 6 10 23 29 11 13 25 23c8 8 16 16 26 22l2 1c9 8 19 14 29 21l11 7 21 10a210 210 0 0 0 53 22c11 4 22 7 34 9l27 6 20 3 28 1h35l37-3 12-3c9-2 18-3 26-6l2-1c12-1 23-5 35-10a1521 1521 0 0 0 40-16l34-20 4-2 14-9 35-28 7-6 29-30 12-15 23-32 5-8 23-44 4-11 11-29 8-30 6-34 2-10 3-52v-6l-4-34-1-15-1-6-10-40-7-24-11-27-11-23-15-26-13-19a1340 1340 0 0 1-37-45l-25-24-16-13-33-24-11-6-34-18-19-8-18-7-22-7-7-2a4789 4789 0 0 0-52-10l-33-2Z" fill="#d3d4d5"/><path d="m730 1178 2 5 22 35 9 18 3 8c3 6 3 7-2 10l-19 11-26 15-7 5c-7 3-10 10-10 17l2 11 7 26 2 7c3 7 8 10 14 11l13 1h47l8 1 3 3 1 3a416 416 0 0 1-1 88c0 2-2 3-3 3l-9 1a16607 16607 0 0 1-60 1c-6 1-10 4-12 10l-4 13c-1 7-4 13-6 20l-2 11c0 6 2 11 6 15l7 5a18838 18838 0 0 1 50 29c3 2 4 5 2 7l-11 24c-7 12-13 24-21 35l-9 13-2 4c-3 3-5 4-9 1l-17-9-31-18-13-5c-5-1-9 0-13 3l-6 5a2789 2789 0 0 0-24 26c-5 6-6 12-4 19l4 8 23 40 6 10-1 5-3 2-28 19a491 491 0 0 1-52 23l-3-3-11-20-16-27-3-5c-6-8-13-11-23-9l-5 1a299 299 0 0 1-34 10c-5 2-8 6-10 12l-2 12v55c0 4-1 5-5 6l-7 1-21 1h-37l-11-1-9-1c-6 0-8-2-8-8v-53l-1-12c-1-5-4-9-8-11l-8-3-33-9h-12c-6 2-10 6-13 11l-12 21-17 29c-3 5-4 5-10 3l-48-26-25-17-1-1c-2-1-3-4-2-6l4-8 24-41 4-8c2-4 2-8 1-12l-2-6-6-7-20-20-8-6c-5-3-9-4-15-2l-9 4a14232 14232 0 0 1-50 29c-2 1-4 0-5-2l-4-5a443 443 0 0 1-41-72c-2-3-1-5 2-7l9-5 41-24 7-5c4-4 6-9 6-14l-2-10-7-28-1-4c-3-8-9-13-17-13l-10-1H27a1308 1308 0 0 1-20 0c-2-1-4-2-4-5l-1-2c-2-20-2-39-2-59l2-28c1-2 3-4 6-4l10-1h57c5-1 9-4 11-9l5-12 5-22 3-10c1-7-1-12-5-16l-7-5-16-10-32-18-4-3c-2-1-2-3-2-5l1-2 15-31 25-40c7-8 7-9 16-3l44 25 8 4 10 1c3 0 5-1 8-3l7-6 17-18 6-5c5-6 6-13 4-21l-4-7-25-44c-5-9-6-10 3-16l45-28 26-12 3-1 3 1 3 4 16 27 12 21 5 6c3 5 8 6 14 7l9-2 28-7 8-3c5-2 8-6 10-11l2-12v-58l3-3 2-1a429 429 0 0 1 88 0c2 1 4 3 4 5l1 9v46l1 14c1 5 5 8 9 10l6 3a2779 2779 0 0 0 41 10c7 0 12-3 15-8l1-3c2-1 3-3 4-6l25-43 4-5c0-1 3-2 5-1h2l32 17 27 16 6 4 3 3 8 6c1 1 2 3 1 5l-2 3-10 19-17 28-3 8c-3 7-2 14 3 19l5 5a314 314 0 0 1 23 24c7 6 15 6 23 3l5-3 42-24 9-5 4 1 3 3c1 2 2 5 5 6Zm-328 6c-16 0-31 0-46 4l-27 7a270 270 0 0 0-92 59l-20 25-9 13c-6 13-14 25-18 39-3 10-7 19-8 30-2 8-4 16-4 24a246 246 0 0 0 2 60c3 14 6 29 12 44l16 32 9 15q16 20 35 38l2 2 7 6 16 12 8 5c14 7 27 15 42 19l3 1 25 7 33 4c18 2 35 0 53-3h1l22-5 10-4a503 503 0 0 0 31-13l18-10 6-4c21-17 23-18 41-37l5-6c8-12 18-24 24-37 4-10 9-19 12-29 3-9 7-19 9-29a238 238 0 0 0 3-70l-1-13-7-29-7-18c-3-9-7-18-12-26l-7-11-4-6c-10-14-21-27-34-39l-16-13-12-8-7-5c-14-7-27-14-41-19l-27-8-9-1-27-3h-10Z" fill="#d60000"/><path d="M1498 1285c-2-3-5-4-8-6l-43-24-3-2c-2-2-2-4-1-5l6-14 14-27 12-19 5-8 5-7 3-4c1-1 3-2 5-1l9 5 42 24c2 1 5 3 8 3 6 2 12 2 17-2l7-7 18-17 6-7 4-9c0-4 0-7-2-10l-3-8-17-28-11-20c-2-3-1-6 2-8l3-2 5-4 11-7 24-14c10-7 22-11 32-16l3-1 3 1c2 1 3 3 3 5l18 30 9 15 4 5c2 4 5 7 9 8 2 1 5 2 7 1l5-1a4671 4671 0 0 0 40-11c6-2 9-6 10-11l2-13a15354 15354 0 0 1 0-56c0-2 2-4 3-4l13-1c21-2 42-2 64 0l14 1c2 0 3 2 4 4v58l1 10c1 6 5 10 11 13l10 3a159 159 0 0 1 27 7c4 1 8 2 12 1 6-2 10-5 13-10l6-10 23-41c3-5 5-6 11-3 17 8 34 17 50 27l23 15 1 1c2 2 3 4 2 6l-3 5-18 32-9 16c-2 2-3 4-3 7-1 6-1 12 4 17l5 6a2607 2607 0 0 0 25 24c5 4 10 5 16 3l10-4 39-22 11-7c2-1 4 0 5 1l4 4 29 46 13 27c1 3 0 6-3 8l-5 2-45 26-8 7c-4 3-5 8-5 13 1 4 1 9 3 13 3 6 4 13 5 19l4 12c2 7 8 10 14 11l10 1h56c3 0 5 2 5 5l2 30v39l-2 18v3c-1 1-2 3-4 3h-54l-14 2c-6 1-11 4-13 10l-3 7c-1 9-5 19-7 28l-1 7c-1 9 2 16 10 20l16 10 33 19 5 3c1 1 2 3 1 4l-1 4c-8 17-17 34-27 49-4 8-10 16-15 23l-4 4h-2l-6-2-34-20-12-7-10-4c-5-1-11 0-15 3l-5 5-23 22-2 3c-6 6-6 12-4 19l4 9 22 38 6 11c1 2 0 5-2 6l-14 11-36 21-26 13c-3 1-5 0-6-2l-7-10-24-41-4-6c-3-4-8-6-13-6l-10 1a2486 2486 0 0 1-38 12c-5 2-8 6-9 12l-1 12v49c0 10-2 10-10 11l-19 1a421 421 0 0 1-65-2c-2 0-4-2-4-4v-62l-2-8c-2-5-4-8-9-10-3-2-5-3-8-3l-28-8-10-1c-6 0-11 2-15 7l-6 9a16069 16069 0 0 1-28 48l-4 2-2-1-35-17-35-22-6-5c-3-2-3-4-1-7l10-18 18-32 2-4c4-9 3-17-4-24l-2-2-22-22-4-4c-4-3-9-4-15-3l-11 4-31 18-19 11c-2 1-5 0-6-2l-3-3-8-11-21-36-13-27c-1-2 0-4 1-5l11-7a9819 9819 0 0 1 47-29c5-4 7-9 6-16l-4-15-4-18-4-10c-2-6-6-9-12-10l-10-1h-57c-3 0-5-2-5-5l-1-2c-1-19-2-38-1-57l2-28v-2c0-2 2-3 4-4h58l9-1c4-1 7-2 10-5l3-4 4-11c1-7 3-15 6-22l2-11v-7c-1-6-4-10-10-12Zm536 117c1-15-4-33-7-51a277 277 0 0 0-29-66c-11-16-23-30-37-44-9-7-18-15-28-21a225 225 0 0 0-86-34c-11-3-24-3-36-3-16 0-32 1-47 5l-28 7c-14 5-27 12-40 19-9 6-18 11-26 18a263 263 0 0 0-61 76l-13 30-8 34-2 34c0 19 2 37 7 55 2 12 7 24 11 35l17 32c14 19 22 29 37 43l28 22c16 10 32 19 50 25l35 9 36 4 31-2c11-3 24-4 35-8l27-10c10-4 21-9 30-15 8-6 17-12 24-19 9-7 17-14 24-23l19-24 17-31c3-9 8-18 10-28a254 254 0 0 0 10-69Z" fill="#2034d9"/></svg>