<svg xmlns="http://www.w3.org/2000/svg" viewBox="0 0 203 415" width="203" height="415">
	<defs></defs>
	<g transform="matrix(1,0,0,1,-806.63251048,-246.818816954)">
		<g>
			<g>
				<path
					d="M908.579413,246.818817C964.832162,246.818817 1010.526316,270.467546 1010.526316,299.580810 C1010.526316,328.694075 964.832162,352.342804 908.579413,352.342804 C852.326664,352.342804 806.632510,328.694075 806.632510,299.580810 C806.632510,270.467546 852.326664,246.818817 908.579413,246.818817 Z"
					transform="" fill="#f2f2f2" />
				<path
					d="M908.579413,262.282339C948.345567,262.282339 980.647645,279.000082 980.647645,299.580810 C980.647645,320.161539 948.345567,336.879281 908.579413,336.879281 C868.813260,336.879281 836.511181,320.161539 836.511181,299.580810 C836.511181,279.000082 868.813260,262.282339 908.579413,262.282339 Z"
					transform="matrix(1,0,0,1,0,0)" fill="#000000" stroke="#000000" stroke-width="2" />
				<path
					d="M908.579413,557.130880C964.832162,557.130880 1010.526316,580.779609 1010.526316,609.892874 C1010.526316,639.006139 964.832162,662.654867 908.579413,662.654867 C852.326664,662.654867 806.632510,639.006139 806.632510,609.892874 C806.632510,580.779609 852.326664,557.130880 908.579413,557.130880 Z"
					transform="matrix(1,0,0,1,0,0)" fill="#f2f2f2" />
				<g />
				<path d="" transform="" fill="#f2f2f2" stroke="#000000" stroke-width="2" />
				<path
					d="M806.632510,299.343775L 834.364209,299.343775 L 834.364209,609.892874 L 806.632510,609.892874 L 806.632510,299.343775 Z"
					transform="matrix(1,0,0,1,0,0)" fill="#f2f2f2" />
				<path
					d="M982.778582,299.580810L 1010.526316,299.580810 L 1010.526316,609.892874 L 982.778582,609.892874 L 982.778582,299.580810 Z"
					transform="" fill="#f2f2f2" />
				<path
					d="M830.981530,338.919315L 996.652449,338.919315 L 996.652449,585.916473 L 830.981530,585.916473 L 830.981530,338.919315 Z"
					transform="matrix(1,0,0,1,0,0)" fill="#f2f2f2" stroke="#f2f2f2" stroke-width="2" />
				<path
					d="M828.492445,332.210178L 849.102836,332.210178 L 849.102836,342.422215 L 828.492445,342.422215 L 828.492445,332.210178 Z"
					transform="matrix(1,0,0,1,0,0)" fill="#f2f2f2" stroke="#f2f2f2" stroke-width="2" />
				<path
					d="M970.473809,328.041477L 986.683921,328.041477 L 986.683921,345.104752 L 970.473809,345.104752 L 970.473809,328.041477 Z"
					transform="matrix(1,0,0,1,0,0)" fill="#f2f2f2" stroke="#f2f2f2" stroke-width="2" />
			</g>
		</g>
	</g>
</svg>